# Blender v2.91.0 OBJ File: 'axe in stump.blend'
# www.blender.org
o Stump_Cylinder
v -0.846487 0.001827 0.000000
v -0.420027 1.148224 0.000000
v -0.338302 0.001827 -0.585956
v -0.210014 1.260056 -0.363754
v 0.408869 0.001827 -0.737544
v 0.210014 1.178411 -0.363754
v 0.676603 0.001827 0.000000
v 0.377622 1.260056 0.000000
v 0.364438 0.001827 0.669591
v 0.210014 1.174081 0.363754
v -0.335688 0.001827 0.557206
v -0.210014 1.143394 0.363754
v -0.479166 0.630941 0.000000
v -0.239583 0.630941 -0.414970
v 0.239583 0.630941 -0.414970
v 0.565415 0.630941 0.000000
v 0.239583 0.630941 0.414970
v -0.239583 0.630941 0.414970
vt 0.260438 0.363239
vt 0.261800 0.430668
vt 0.201336 0.431889
vt 0.199975 0.364460
vt 0.141589 0.433096
vt 0.140227 0.365666
vt 0.498847 0.358424
vt 0.500208 0.425853
vt 0.438616 0.427097
vt 0.437255 0.359668
vt 0.378633 0.428309
vt 0.377272 0.360879
vt 0.741720 0.859363
vt 0.709692 0.778933
vt 0.762121 0.713734
vt 0.845043 0.726388
vt 0.868039 0.804669
vt 0.825648 0.874174
vt 0.321035 0.429472
vt 0.319673 0.362042
vt 0.431704 0.349510
vt 0.372150 0.429218
vt 0.277969 0.455582
vt 0.236835 0.363715
vt 0.270530 0.275134
vt 0.361154 0.282983
vt 0.318043 0.281333
vt 0.258808 0.282529
vt 0.375642 0.280170
vt 0.435625 0.278958
vt 0.497217 0.277715
vt 0.198345 0.283750
vt 0.138597 0.284957
vn -0.8681 0.0890 -0.4884
vn 0.0079 0.0867 -0.9962
vn 0.8231 0.1756 -0.5400
vn 0.8226 0.1761 0.5407
vn -0.0705 0.9939 0.0853
vn -0.0033 0.0966 0.9953
vn -0.8615 0.0990 0.4980
vn 0.0000 -1.0000 0.0000
vn -0.7447 0.3393 0.5748
vn -0.0906 0.2977 0.9504
vn 0.8333 0.2555 0.4902
vn 0.8478 0.3009 -0.4366
vn -0.1146 0.3572 -0.9270
vn -0.7494 0.3536 -0.5598
s off
f 13/1/1 2/2/1 4/3/1 14/4/1
f 14/4/2 4/3/2 6/5/2 15/6/2
f 15/7/3 6/8/3 8/9/3 16/10/3
f 16/10/4 8/9/4 10/11/4 17/12/4
f 4/13/5 2/14/5 12/15/5 10/16/5 8/17/5 6/18/5
f 17/12/6 10/11/6 12/19/6 18/20/6
f 18/20/7 12/19/7 2/2/7 13/1/7
f 1/21/8 3/22/8 5/23/8 7/24/8 9/25/8 11/26/8
f 11/27/9 18/20/9 13/1/9 1/28/9
f 9/29/10 17/12/10 18/20/10 11/27/10
f 7/30/11 16/10/11 17/12/11 9/29/11
f 5/31/12 15/7/12 16/10/12 7/30/12
f 3/32/13 14/4/13 15/6/13 5/33/13
f 1/28/14 13/1/14 14/4/14 3/32/14
o Axe_Cube.002
v 0.044005 1.341721 -0.012486
v 0.759929 1.732638 0.259741
v 0.603793 1.674260 0.200123
v 0.427968 1.544183 0.133581
v 0.753900 1.704959 0.290751
v 0.047384 1.315026 0.022139
v 0.758041 1.657280 0.292787
v 0.076335 1.261103 0.033792
v 0.780806 1.635280 0.268684
v 0.101907 1.233876 0.010819
v 0.780233 1.656749 0.235188
v 0.098528 1.260571 -0.023807
v 0.776092 1.704427 0.233153
v 0.069576 1.314494 -0.035459
v 0.210454 1.430812 0.050822
v 0.211027 1.409344 0.084318
v 0.428541 1.522715 0.167077
v 0.604366 1.652792 0.233619
v 0.234365 1.365876 0.093711
v 0.451879 1.479246 0.176470
v 0.627704 1.609324 0.243012
v 0.257130 1.343876 0.069609
v 0.474644 1.457247 0.152367
v 0.650470 1.587324 0.218910
v 0.256557 1.365344 0.036113
v 0.474071 1.478715 0.118872
v 0.649897 1.608792 0.185414
v 0.233219 1.408812 0.026719
v 0.450733 1.522183 0.109478
v 0.626558 1.652261 0.176021
v 0.283652 1.360291 0.079676
v 0.229326 1.441075 0.091075
v 0.228753 1.462543 0.057579
v 0.260887 1.382291 0.103778
v 0.283079 1.381760 0.046180
v 0.251518 1.440543 0.033477
v 0.776895 1.691542 0.266658
v 0.142802 1.216995 -0.001380
v 0.059953 1.381043 -0.050605
v 0.244302 1.279816 0.037147
v 0.161453 1.443863 -0.012078
v 0.124137 1.217443 0.047064
v 0.030805 1.381742 0.025049
v 0.225636 1.280263 0.085591
v 0.132304 1.444562 0.063576
v 0.129771 1.278435 -0.022757
v 0.100389 1.333160 -0.034583
v 0.219814 1.407075 0.010748
v 0.249195 1.352350 0.022573
v 0.190665 1.407773 0.086401
v 0.220047 1.353049 0.098227
v 0.071241 1.333858 0.041071
v 0.100622 1.279133 0.052897
v 0.353317 1.236153 0.107209
v 0.234969 1.280040 0.061369
v 0.146878 1.444213 0.025749
v 0.133470 1.217219 0.022842
v 0.045379 1.381392 -0.012778
v 0.115197 1.278784 0.015070
v 0.085815 1.333509 0.003244
v 0.234621 1.352699 0.060400
v 0.205239 1.407424 0.048574
v 0.166673 1.120634 0.036364
v 0.193552 1.248406 0.017883
v 0.110703 1.412453 -0.031341
v 0.174887 1.248853 0.066328
v 0.081554 1.413152 0.044312
v 0.160335 1.316091 0.075562
v 0.130953 1.370816 0.063736
v 0.189483 1.315392 -0.000092
v 0.160101 1.370117 -0.011918
v 0.096129 1.412802 0.006485
v 0.273366 1.153490 0.077168
vt 0.695296 0.296752
vt 0.628058 0.296421
vt 0.628582 0.282197
vt 0.694862 0.281896
vt 0.737854 0.328236
vt 0.694182 0.327927
vt 0.695133 0.312372
vt 0.739650 0.314323
vt 0.551437 0.351154
vt 0.490977 0.348395
vt 0.491586 0.335018
vt 0.551991 0.336375
vt 0.626900 0.324252
vt 0.627507 0.310296
vt 0.739137 0.300286
vt 0.743587 0.287074
vt 0.492218 0.318507
vt 0.552137 0.321958
vt 0.560807 0.365564
vt 0.550178 0.365522
vt 0.562201 0.353954
vt 0.492752 0.304449
vt 0.552644 0.307798
vt 0.692065 0.370570
vt 0.625679 0.368630
vt 0.625718 0.353924
vt 0.692016 0.356419
vt 0.494165 0.290501
vt 0.553506 0.293701
vt 0.403173 0.293021
vt 0.435967 0.269220
vt 0.469058 0.292606
vt 0.469355 0.339794
vt 0.436561 0.363596
vt 0.403470 0.340209
vt 0.740573 0.372079
vt 0.742020 0.357162
vt 0.495875 0.274160
vt 0.554394 0.280033
vt 0.562583 0.307031
vt 0.563253 0.291979
vt 0.564201 0.279158
vt 0.490990 0.361800
vt 0.830163 0.359381
vt 0.847541 0.322249
vt 0.877914 0.352706
vt 0.561866 0.322039
vt 0.741020 0.341949
vt 0.692773 0.342405
vt 0.626227 0.338684
vt 0.561886 0.341134
vt 0.869365 0.275618
vt 0.804697 0.318440
vt 0.822555 0.277546
vt 0.229366 0.803770
vt 0.244156 0.872337
vt 0.304585 0.857981
vt 0.287526 0.780142
vt 0.897873 0.312796
vt 0.179063 0.849326
vt 0.210668 0.841621
vt 0.216727 0.866468
vt 0.185122 0.874174
vt 0.229366 0.803770
vt 0.244156 0.872337
vt 0.183728 0.886694
vt 0.171206 0.827398
vt 0.293357 0.821459
vt 0.265222 0.828319
vt 0.259163 0.803472
vt 0.287298 0.796612
vt 0.182747 0.704551
vt 0.136916 0.718156
vt 0.029413 0.642808
vt 0.146980 0.565289
vt 0.237945 0.834970
vt 0.231887 0.810123
vt 0.120141 0.296168
vt 0.120141 0.368820
vt 0.072515 0.368820
vt 0.087527 0.296168
vt 0.120141 0.426933
vt 0.072397 0.426826
vt 0.205975 0.758954
vt 0.156455 0.777577
vt 0.120141 0.296168
vt 0.120141 0.368820
vt 0.072515 0.368820
vt 0.087527 0.296168
vt 0.120141 0.426933
vt 0.072397 0.426826
vt 0.182503 0.704306
vt 0.205975 0.758954
vt 0.239993 0.749244
vt 0.216850 0.696270
vt 0.120141 0.141974
vt 0.120141 0.141974
vt 0.257642 0.542069
vt 0.155615 0.296168
vt 0.155615 0.296168
vt 0.166912 0.368820
vt 0.166912 0.427039
vt 0.166912 0.368820
vt 0.166912 0.427040
vt 0.244003 0.859817
vt 0.271280 0.853166
vt 0.299415 0.846306
vt 0.173005 0.824480
vt 0.204610 0.816774
vt 0.136916 0.718156
vt 0.156455 0.777577
vt 0.171206 0.827398
vt 0.239993 0.749244
vt 0.287526 0.780142
vt 0.217339 0.696758
vt 0.304585 0.857981
vt 0.183728 0.886694
vn 0.3595 -0.0086 -0.9331
vn 0.0104 -0.7336 0.6795
vn -0.5580 0.6620 0.5004
vn 0.1840 -0.6332 0.7518
vn -0.3595 0.0086 0.9331
vn 0.6369 -0.6441 -0.4237
vn -0.4358 0.4208 -0.7957
vn 0.1284 -0.6166 0.7767
vn 0.4591 -0.7444 -0.4849
vn -0.1840 0.6332 -0.7518
vn 0.6125 -0.6282 -0.4797
vn -0.8092 -0.5008 -0.3072
vn 0.0092 0.7140 -0.7001
vn 0.5873 -0.6768 -0.4438
vn -0.0740 0.6504 -0.7560
vn 0.9084 0.3971 0.1309
vn 0.1336 -0.6659 0.7340
vn -0.4585 0.7252 0.5137
vn -0.6369 0.6441 0.4237
vn -0.8543 0.4308 0.2907
vn -0.4830 0.7334 0.4783
vn 0.0821 -0.6963 0.7131
vn 0.5349 -0.7071 -0.4624
vn -0.0327 0.7226 -0.6905
vn 0.7527 0.0838 0.6530
vn 0.9968 0.0780 0.0195
vn 0.7639 0.4005 0.5060
vn 0.4751 0.8623 0.1751
vn -0.6928 -0.6723 -0.2607
vn -0.2761 -0.2019 0.9397
vn -0.4647 0.8655 -0.1870
vn -0.8891 -0.3068 -0.3397
vn -0.2471 -0.1841 0.9513
vn 0.9331 0.0093 0.3594
vn 0.8092 0.5008 0.3072
vn 0.4556 -0.2048 -0.8663
vn -0.8759 -0.3479 -0.3343
vn 0.3079 0.9451 0.1099
vn 0.4715 -0.1659 -0.8661
vn 0.4239 -0.2164 -0.8795
vn -0.2310 -0.1508 0.9612
s off
f 45/34/15 44/35/15 47/36/15 48/37/15
f 25/38/16 39/39/16 42/40/16 27/41/16
f 33/42/17 19/43/17 24/44/17 34/45/17
f 39/39/18 38/46/18 41/47/18 42/40/18
f 29/48/15 45/34/15 48/37/15 31/49/15
f 34/45/19 24/44/19 26/50/19 37/51/19
f 42/40/20 41/47/20 44/35/20 45/34/20
f 54/52/21 46/53/21 33/42/21 51/54/21
f 37/51/22 26/50/22 28/55/22 40/56/22
f 27/41/23 42/40/23 45/34/23 29/48/23
f 48/57/24 47/58/24 22/59/24 21/60/24
f 40/56/25 28/55/25 30/61/25 43/62/25
f 24/63/26 19/64/26 32/65/26 30/66/26 28/67/26 26/68/26
f 31/69/27 48/57/27 21/60/27 20/70/27
f 43/62/15 30/61/15 32/71/15 46/72/15
f 49/73/28 40/56/28 43/62/28 53/74/28
f 53/74/15 43/62/15 46/72/15 54/75/15
f 46/53/29 32/76/29 19/43/29 33/42/29
f 20/77/30 55/78/30 31/79/30
f 52/80/31 37/51/31 40/56/31 49/73/31
f 23/81/19 36/82/19 39/39/19 25/38/19
f 36/82/19 35/83/19 38/46/19 39/39/19
f 50/84/19 34/45/19 37/51/19 52/80/19
f 20/70/32 21/60/32 36/82/32 23/81/32
f 21/60/33 22/59/33 35/83/33 36/82/33
f 51/54/34 33/42/34 34/45/34 50/84/34
f 22/59/35 51/54/35 50/84/35 35/83/35
f 35/83/19 50/84/19 52/80/19 38/46/19
f 38/46/36 52/80/36 49/73/36 41/47/36
f 44/35/15 53/74/15 54/75/15 47/36/15
f 41/47/37 49/73/37 53/74/37 44/35/37
f 47/58/38 54/52/38 51/54/38 22/59/38
f 27/85/39 55/78/39 23/86/39 25/87/39
f 89/88/15 83/89/15 59/90/15 66/91/15
f 31/79/40 55/78/40 27/85/40 29/92/40
f 23/86/41 55/78/41 20/77/41
f 80/93/42 74/94/42 63/95/42 68/96/42
f 87/97/19 85/98/19 61/99/19 70/100/19
f 78/101/43 76/102/43 57/103/43 65/104/43
f 84/105/44 60/106/44 81/107/44 91/108/44
f 90/109/45 83/110/45 57/103/45 76/102/45
f 75/111/46 77/112/46 64/113/46 56/114/46
f 77/112/26 78/115/26 65/116/26 64/113/26
f 84/105/47 86/117/47 71/118/47 60/106/47
f 86/117/19 87/97/19 70/100/19 71/118/19
f 73/119/48 79/120/48 69/121/48 62/122/48
f 79/120/49 80/123/49 68/124/49 69/121/49
f 82/125/50 88/126/50 67/127/50 58/128/50
f 88/126/15 89/88/15 66/91/15 67/127/15
f 75/111/51 56/114/51 81/129/51
f 73/119/52 62/122/52 72/130/52
f 82/125/53 58/128/53 72/131/53 91/108/53
f 58/132/52 73/119/52 72/130/52
f 60/133/51 75/111/51 81/129/51
f 67/134/49 66/135/49 80/123/49 79/120/49
f 58/132/48 67/134/48 79/120/48 73/119/48
f 71/136/26 70/137/26 78/115/26 77/112/26
f 60/133/46 71/136/46 77/112/46 75/111/46
f 85/138/45 90/109/45 76/102/45 61/139/45
f 70/140/43 61/139/43 76/102/43 78/101/43
f 66/141/42 59/142/42 74/94/42 80/93/42
f 63/95/45 74/94/45 90/109/45 85/138/45
f 56/143/54 82/125/54 91/108/54 81/107/54
f 64/144/15 65/145/15 89/88/15 88/126/15
f 56/143/50 64/144/50 88/126/50 82/125/50
f 69/146/19 68/147/19 87/97/19 86/117/19
f 62/148/47 69/146/47 86/117/47 84/105/47
f 74/94/45 59/142/45 83/110/45 90/109/45
f 62/148/55 84/105/55 91/108/55 72/131/55
f 68/147/19 63/149/19 85/98/19 87/97/19
f 65/145/15 57/150/15 83/89/15 89/88/15
o Floor_Plane
v -2.289437 0.064248 2.310549
v 2.282965 0.064248 2.310549
v -2.289437 0.064248 -2.261853
v 2.282965 0.064248 -2.261853
vt 0.000000 0.000000
vt 1.000000 0.000000
vt 1.000000 1.000000
vt 0.000000 1.000000
vn 0.0000 1.0000 0.0000
s off
f 92/151/56 93/152/56 95/153/56 94/154/56
